<?xml version="1.0" encoding="UTF-8"?>
<!DOCTYPE svg PUBLIC "-//W3C//DTD SVG 1.1//EN" "http://www.w3.org/Graphics/SVG/1.1/DTD/svg11.dtd">
<svg xmlns="http://www.w3.org/2000/svg" version="1.1" width="496px" height="495px" style="shape-rendering:geometricPrecision; text-rendering:geometricPrecision; image-rendering:optimizeQuality; fill-rule:evenodd; clip-rule:evenodd" xmlns:xlink="http://www.w3.org/1999/xlink">
<g><path style="opacity:1" fill="#0993b2" d="M 329.5,83.5 C 329.5,110.833 329.5,138.167 329.5,165.5C 357.167,165.5 384.833,165.5 412.5,165.5C 445.016,165.866 469.183,180.199 485,208.5C 488.603,215.476 491.103,222.809 492.5,230.5C 493.166,239.485 493.499,248.485 493.5,257.5C 488.054,293.785 467.721,317.285 432.5,328C 426.222,329.188 419.888,329.688 413.5,329.5C 385.5,329.5 357.5,329.5 329.5,329.5C 329.94,296.805 329.44,264.138 328,231.5C 326.089,224.21 324.089,216.876 322,209.5C 313.22,196.386 302.387,185.219 289.5,176C 281.098,172.228 272.432,169.062 263.5,166.5C 230.84,165.5 198.173,165.167 165.5,165.5C 165.5,136.833 165.5,108.167 165.5,79.5C 167.95,43.4449 185.95,18.6116 219.5,5C 257.857,-5.8788 289.69,3.95453 315,34.5C 325.39,49.1715 330.223,65.5048 329.5,83.5 Z"/></g>
<g><path style="opacity:0.237" fill="#aee4f0" d="M 165.5,79.5 C 165.5,108.167 165.5,136.833 165.5,165.5C 164.833,165.5 164.167,165.5 163.5,165.5C 154.983,165.826 146.65,165.493 138.5,164.5C 146.833,164.5 155.167,164.5 163.5,164.5C 164.142,136.027 164.809,107.693 165.5,79.5 Z"/></g>
<g><path style="opacity:0.433" fill="#b8e8ef" d="M 329.5,83.5 C 330.332,110.002 330.999,136.669 331.5,163.5C 358.664,164.004 385.664,164.67 412.5,165.5C 384.833,165.5 357.167,165.5 329.5,165.5C 329.5,138.167 329.5,110.833 329.5,83.5 Z"/></g>
<g><path style="opacity:1" fill="#5690bc" d="M 138.5,164.5 C 146.65,165.493 154.983,165.826 163.5,165.5C 132.167,166.833 100.833,166.833 69.5,165.5C 92.506,165.5 115.506,165.167 138.5,164.5 Z"/></g>
<g><path style="opacity:1" fill="#004181" d="M 165.5,165.5 C 198.173,165.167 230.84,165.5 263.5,166.5C 272.432,169.062 281.098,172.228 289.5,176C 302.387,185.219 313.22,196.386 322,209.5C 324.089,216.876 326.089,224.21 328,231.5C 329.44,264.138 329.94,296.805 329.5,329.5C 329.167,329.5 328.833,329.5 328.5,329.5C 296.138,329.94 263.805,329.44 231.5,328C 197.304,319.137 175.804,297.637 167,263.5C 165.56,230.862 165.06,198.195 165.5,165.5 Z"/></g>
<g><path style="opacity:1" fill="#0871b9" d="M 69.5,165.5 C 100.833,166.833 132.167,166.833 163.5,165.5C 164.167,165.5 164.833,165.5 165.5,165.5C 165.06,198.195 165.56,230.862 167,263.5C 175.804,297.637 197.304,319.137 231.5,328C 263.805,329.44 296.138,329.94 328.5,329.5C 328.833,360.84 328.5,392.174 327.5,423.5C 324.112,431.326 321.112,439.326 318.5,447.5C 317.5,446.833 316.5,446.167 315.5,445.5C 314.808,446.025 314.308,446.692 314,447.5C 314.441,450.866 314.274,454.2 313.5,457.5C 312.311,458.429 310.978,458.762 309.5,458.5C 309.374,461.468 307.874,463.468 305,464.5C 304.156,468.27 301.99,470.603 298.5,471.5C 298.5,472.5 298.5,473.5 298.5,474.5C 297.5,474.5 296.5,474.5 295.5,474.5C 295.5,475.5 295.5,476.5 295.5,477.5C 293.833,477.5 292.167,477.5 290.5,477.5C 290.714,479.144 290.38,480.644 289.5,482C 286.649,483.289 283.649,483.789 280.5,483.5C 280.567,484.959 280.234,486.292 279.5,487.5C 276.813,487.336 274.146,487.503 271.5,488C 269.192,489.867 266.525,490.867 263.5,491C 257.836,491.53 252.169,492.03 246.5,492.5C 238.84,491.686 231.174,491.019 223.5,490.5C 223.586,489.504 223.252,488.671 222.5,488C 220.527,487.505 218.527,487.338 216.5,487.5C 216.5,485.5 216.5,483.5 216.5,481.5C 213.753,481.813 211.086,481.48 208.5,480.5C 208.023,479.069 207.357,477.736 206.5,476.5C 204.253,477.374 201.92,477.708 199.5,477.5C 198.445,472.829 195.445,470.829 190.5,471.5C 178.712,460.598 171.046,447.265 167.5,431.5C 166.958,397.67 166.292,364.004 165.5,330.5C 165.5,330.167 165.5,329.833 165.5,329.5C 165.389,328.883 165.056,328.383 164.5,328C 132.167,327.667 99.8333,327.333 67.5,327C 63.5205,323.956 59.1872,321.623 54.5,320C 52.5273,319.505 50.5273,319.338 48.5,319.5C 49.0522,317.669 49.0522,316.003 48.5,314.5C 47.8333,314.167 47.1667,313.833 46.5,313.5C 42.9753,316.18 39.6419,315.847 36.5,312.5C 34.1237,308.931 31.1237,306.431 27.5,305C 29.3293,306.113 30.1626,307.613 30,309.5C 28.2228,307.21 26.0562,305.543 23.5,304.5C 14.9569,296.09 8.9569,286.09 5.5,274.5C 5.2962,267.017 4.12954,259.684 2,252.5C 1.50085,247.845 1.33418,243.179 1.5,238.5C 1.19845,235.941 1.53178,233.607 2.5,231.5C 3.37644,231.631 4.04311,231.298 4.5,230.5C 4.9121,228.113 5.9121,226.113 7.5,224.5C 8.16667,221.833 8.83333,219.167 9.5,216.5C 11.9716,213.588 14.3049,210.588 16.5,207.5C 17.3142,205.234 17.8142,202.9 18,200.5C 22,197.167 26,193.833 30,190.5C 31.2899,188.208 32.9565,186.208 35,184.5C 35.49,183.207 35.6567,181.873 35.5,180.5C 45.5329,172.812 56.8662,167.812 69.5,165.5 Z"/></g>
<g><path style="opacity:1" fill="#347db0" d="M 35.5,180.5 C 35.6567,181.873 35.49,183.207 35,184.5C 32.9565,186.208 31.2899,188.208 30,190.5C 26,193.833 22,197.167 18,200.5C 17.8142,202.9 17.3142,205.234 16.5,207.5C 14.3049,210.588 11.9716,213.588 9.5,216.5C 8.83333,219.167 8.16667,221.833 7.5,224.5C 5.9121,226.113 4.9121,228.113 4.5,230.5C 4.04311,231.298 3.37644,231.631 2.5,231.5C 6.2409,209.657 17.2409,192.657 35.5,180.5 Z"/></g>
<g><path style="opacity:0.051" fill="#a3d9e5" d="M 492.5,230.5 C 493.931,235.933 494.598,241.599 494.5,247.5C 494.498,251.018 494.165,254.351 493.5,257.5C 493.499,248.485 493.166,239.485 492.5,230.5 Z"/></g>
<g><path style="opacity:1" fill="#639bc2" d="M 1.5,238.5 C 1.33418,243.179 1.50085,247.845 2,252.5C 4.12954,259.684 5.2962,267.017 5.5,274.5C 0.880437,262.836 -0.452896,250.836 1.5,238.5 Z"/></g>
<g><path style="opacity:1" fill="#3a7eb3" d="M 23.5,304.5 C 26.0562,305.543 28.2228,307.21 30,309.5C 30.1626,307.613 29.3293,306.113 27.5,305C 31.1237,306.431 34.1237,308.931 36.5,312.5C 39.6419,315.847 42.9753,316.18 46.5,313.5C 47.1667,313.833 47.8333,314.167 48.5,314.5C 49.0522,316.003 49.0522,317.669 48.5,319.5C 50.5273,319.338 52.5273,319.505 54.5,320C 59.1872,321.623 63.5205,323.956 67.5,327C 99.8333,327.333 132.167,327.667 164.5,328C 165.056,328.383 165.389,328.883 165.5,329.5C 151.99,329.171 138.656,329.504 125.5,330.5C 106.834,330.067 88.1669,329.567 69.5,329C 51.4259,325.799 36.0926,317.632 23.5,304.5 Z"/></g>
<g><path style="opacity:0.098" fill="#b2dbf3" d="M 125.5,330.5 C 138.656,329.504 151.99,329.171 165.5,329.5C 165.5,329.833 165.5,330.167 165.5,330.5C 165.828,342.678 165.495,354.678 164.5,366.5C 164.812,354.782 164.479,343.116 163.5,331.5C 150.851,330.501 138.184,330.168 125.5,330.5 Z"/></g>
<g><path style="opacity:0.953" fill="#b5e4f2" d="M 329.5,329.5 C 357.5,329.5 385.5,329.5 413.5,329.5C 386.331,330.327 358.997,330.994 331.5,331.5C 330.932,359.994 330.265,388.327 329.5,416.5C 329.5,387.5 329.5,358.5 329.5,329.5 Z"/></g>
<g><path style="opacity:0.938" fill="#548ab8" d="M 165.5,330.5 C 166.292,364.004 166.958,397.67 167.5,431.5C 166.691,429.708 166.191,427.708 166,425.5C 165.517,405.831 165.017,386.164 164.5,366.5C 165.495,354.678 165.828,342.678 165.5,330.5 Z"/></g>
<g><path style="opacity:0.384" fill="#aeb4b4" d="M 450.5,394.5 C 451.404,395.209 451.737,396.209 451.5,397.5C 450.127,397.657 448.793,397.49 447.5,397C 448.942,396.623 449.942,395.79 450.5,394.5 Z"/></g>
<g><path style="opacity:0.553" fill="#b2b7b7" d="M 447.5,405.5 C 450.797,405.329 451.131,405.995 448.5,407.5C 447.702,407.043 447.369,406.376 447.5,405.5 Z"/></g>
<g><path style="opacity:0.51" fill="#bfc0c0" d="M 440.5,411.5 C 442.384,411.712 443.717,412.712 444.5,414.5C 442.219,415.262 440.886,414.262 440.5,411.5 Z"/></g>
<g><path style="opacity:0.318" fill="#b6b9ba" d="M 451.5,412.5 C 456.638,414.001 456.638,415.001 451.5,415.5C 451.5,414.5 451.5,413.5 451.5,412.5 Z"/></g>
<g><path style="opacity:0.412" fill="#bec1c1" d="M 444.5,416.5 C 446.983,416.73 447.483,417.397 446,418.5C 444.97,418.164 444.47,417.497 444.5,416.5 Z"/></g>
<g><path style="opacity:0.378" fill="#b2b7b8" d="M 438.5,420.5 C 439.376,420.369 440.043,420.702 440.5,421.5C 438.192,422.873 437.525,422.54 438.5,420.5 Z"/></g>
<g><path style="opacity:0.51" fill="#b1b5b5" d="M 400.5,423.5 C 401.573,424.251 401.74,425.251 401,426.5C 400.517,425.552 400.351,424.552 400.5,423.5 Z"/></g>
<g><path style="opacity:0.571" fill="#adb6b7" d="M 445.5,427.5 C 446.386,426.224 447.386,426.224 448.5,427.5C 447.575,428.562 446.575,428.562 445.5,427.5 Z"/></g>
<g><path style="opacity:0.343" fill="#acaeaf" d="M 441.5,428.5 C 442.251,427.427 443.251,427.26 444.5,428C 443.552,428.483 442.552,428.649 441.5,428.5 Z"/></g>
<g><path style="opacity:0.455" fill="#bec1c2" d="M 363.5,428.5 C 366.012,429.216 366.012,430.216 363.5,431.5C 362.438,430.575 362.438,429.575 363.5,428.5 Z"/></g>
<g><path style="opacity:0.486" fill="#b9bcbc" d="M 425.5,434.5 C 427.308,434.491 428.975,434.991 430.5,436C 429.667,436.167 428.833,436.333 428,436.5C 426.624,436.316 425.791,435.649 425.5,434.5 Z"/></g>
<g><path style="opacity:0.016" fill="#c8c9ca" d="M 362.5,439.5 C 363.995,439.415 364.995,440.081 365.5,441.5C 363.604,442.639 362.604,441.973 362.5,439.5 Z"/></g>
<g><path style="opacity:0.341" fill="#afb3b3" d="M 366.5,443.5 C 367.251,442.427 368.251,442.26 369.5,443C 368.552,443.483 367.552,443.649 366.5,443.5 Z"/></g>
<g><path style="opacity:0.51" fill="#abafaf" d="M 441.5,443.5 C 442.251,442.427 443.251,442.26 444.5,443C 443.552,443.483 442.552,443.649 441.5,443.5 Z"/></g>
<g><path style="opacity:0.978" fill="#b1b2b3" d="M 464.5,441.5 C 466.355,441.272 467.188,441.939 467,443.5C 462.898,445.171 462.064,444.504 464.5,441.5 Z"/></g>
<g><path style="opacity:0.247" fill="#b4b7b8" d="M 473.5,441.5 C 475.665,441.116 477.332,441.783 478.5,443.5C 477.467,444.452 476.3,444.452 475,443.5C 473.97,443.164 473.47,442.497 473.5,441.5 Z"/></g>
<g><path style="opacity:0.275" fill="#adafaf" d="M 495.5,442.5 C 495.5,443.167 495.5,443.833 495.5,444.5C 494.167,443.833 494.167,443.167 495.5,442.5 Z"/></g>
<g><path style="opacity:0.226" fill="#bcc0c0" d="M 396.5,444.5 C 398.983,444.73 399.483,445.397 398,446.5C 396.97,446.164 396.47,445.497 396.5,444.5 Z"/></g>
<g><path style="opacity:0.341" fill="#afb3b3" d="M 490.5,445.5 C 491.251,444.427 492.251,444.26 493.5,445C 492.552,445.483 491.552,445.649 490.5,445.5 Z"/></g>
<g><path style="opacity:1" fill="#3d80b2" d="M 328.5,329.5 C 328.833,329.5 329.167,329.5 329.5,329.5C 329.5,358.5 329.5,387.5 329.5,416.5C 327.851,442.299 316.851,463.133 296.5,479C 291.358,482.904 285.691,485.738 279.5,487.5C 280.234,486.292 280.567,484.959 280.5,483.5C 283.649,483.789 286.649,483.289 289.5,482C 290.38,480.644 290.714,479.144 290.5,477.5C 292.167,477.5 293.833,477.5 295.5,477.5C 295.5,476.5 295.5,475.5 295.5,474.5C 296.5,474.5 297.5,474.5 298.5,474.5C 298.5,473.5 298.5,472.5 298.5,471.5C 301.99,470.603 304.156,468.27 305,464.5C 307.874,463.468 309.374,461.468 309.5,458.5C 310.978,458.762 312.311,458.429 313.5,457.5C 314.274,454.2 314.441,450.866 314,447.5C 314.308,446.692 314.808,446.025 315.5,445.5C 316.5,446.167 317.5,446.833 318.5,447.5C 321.112,439.326 324.112,431.326 327.5,423.5C 328.5,392.174 328.833,360.84 328.5,329.5 Z"/></g>
<g><path style="opacity:1" fill="#4284b2" d="M 190.5,471.5 C 195.445,470.829 198.445,472.829 199.5,477.5C 201.92,477.708 204.253,477.374 206.5,476.5C 207.357,477.736 208.023,479.069 208.5,480.5C 211.086,481.48 213.753,481.813 216.5,481.5C 216.5,483.5 216.5,485.5 216.5,487.5C 218.527,487.338 220.527,487.505 222.5,488C 223.252,488.671 223.586,489.504 223.5,490.5C 210.754,487.064 199.754,480.731 190.5,471.5 Z"/></g>
<g><path style="opacity:1" fill="#5490b8" d="M 279.5,487.5 C 272.23,491.218 264.563,493.552 256.5,494.5C 250.5,494.5 244.5,494.5 238.5,494.5C 233.377,493.675 228.377,492.341 223.5,490.5C 231.174,491.019 238.84,491.686 246.5,492.5C 252.169,492.03 257.836,491.53 263.5,491C 266.525,490.867 269.192,489.867 271.5,488C 274.146,487.503 276.813,487.336 279.5,487.5 Z"/></g>
</svg>
